# xmcd
#
# Track frame offsets:
#  150
#  17901
#  35902
#  55155
#  71025
#  86137
#  97174
#  115539
#  127196
#  147326
#
# Disc length: 2187 seconds
#
# Revision: 0
# Processed by: cddbd v1.5.1PL2 Copyright (c) Steve Scherf et al.
# Submitted via: Collectorz.com_Music_Collector 6.11
#
DISCID=9708890a
DTITLE=Meazza, Max - The Big Thunder
DYEAR=2003
DGENRE=
TTITLE0=Dead Car
TTITLE1=Long Knife Jackson
TTITLE2=Rio Hondo
TTITLE3=Blue Horizon Highway
TTITLE4=Billy The Kid (No Time To Live)
TTITLE5=Nightime Call
TTITLE6=Rain In The Face (The Big Thunder)
TTITLE7=Jack's Roadhouse
TTITLE8=Big Knife
TTITLE9=Illegal Road (Contraband)
EXTD=
EXTT0=
EXTT1=
EXTT2=
EXTT3=
EXTT4=
EXTT5=
EXTT6=
EXTT7=
EXTT8=
EXTT9=
PLAYORDER=
